RobotoSerifDisplay-SuperWidth300.ufo
<glyph name="asterisk" format="2">
  <advance width="309.68"/>
  <unicode hex="002A"/>
  <outline>
    <contour>
      <point x="66.655" y="427.0" type="curve"/>
      <point x="23.3" y="512.0" type="line"/>
      <point x="57.835" y="537.2"/>
      <point x="96.855" y="523.6"/>
      <point x="148.89499999999998" y="560.8" type="curve"/>
      <point x="160.89" y="538.6" type="line"/>
      <point x="107.505" y="499.2"/>
      <point x="101.14499999999998" y="452.4"/>
    </contour>
    <contour>
      <point x="148.89499999999998" y="538.6" type="line"/>
      <point x="96.81" y="575.8"/>
      <point x="57.685" y="562.2"/>
      <point x="23.3" y="587.4" type="curve"/>
      <point x="66.61" y="672.4" type="line"/>
      <point x="101.14499999999998" y="647.0"/>
      <point x="107.505" y="600.2"/>
      <point x="160.74" y="560.8" type="curve"/>
    </contour>
    <contour>
      <point x="111.53" y="389.2" type="line"/>
      <point x="111.53" y="439.8"/>
      <point x="144.295" y="473.0"/>
      <point x="143.8" y="549.6" type="curve"/>
      <point x="166.03" y="549.6" type="line"/>
      <point x="165.535" y="473.0"/>
      <point x="198.29999999999998" y="439.8"/>
      <point x="198.29999999999998" y="389.2" type="curve"/>
    </contour>
    <contour>
      <point x="143.65" y="549.6" type="line"/>
      <point x="144.14499999999998" y="626.2"/>
      <point x="111.485" y="659.4"/>
      <point x="111.485" y="710.0" type="curve"/>
      <point x="198.14999999999998" y="710.0" type="line"/>
      <point x="198.14999999999998" y="659.4"/>
      <point x="165.49" y="626.2"/>
      <point x="165.88" y="549.6" type="curve"/>
    </contour>
    <contour>
      <point x="243.175" y="426.8" type="line"/>
      <point x="208.535" y="452.2"/>
      <point x="202.175" y="499.0"/>
      <point x="148.94" y="538.4" type="curve"/>
      <point x="160.89" y="560.6" type="line"/>
      <point x="212.87" y="523.4"/>
      <point x="251.995" y="537.0"/>
      <point x="286.38" y="511.8" type="curve"/>
    </contour>
    <contour>
      <point x="160.89" y="538.4" type="curve"/>
      <point x="148.89499999999998" y="560.6" type="line"/>
      <point x="202.175" y="600.0"/>
      <point x="208.535" y="646.8"/>
      <point x="243.025" y="672.2" type="curve"/>
      <point x="286.38" y="587.2" type="line"/>
      <point x="251.84499999999997" y="562.0"/>
      <point x="212.825" y="575.6"/>
    </contour>
  </outline>
</glyph>
<glyph name="two" format="2">
  <advance width="422.8"/>
  <unicode hex="0032"/>
  <outline>
    <contour>
      <point x="285.53" y="137.60000000000002" type="line" smooth="yes"/>
      <point x="338.455" y="137.60000000000002"/>
      <point x="355.925" y="143.20000000000002"/>
      <point x="360.675" y="185.2" type="curve" smooth="yes"/>
      <point x="369.38" y="252.60000000000002" type="line"/>
      <point x="404.55999999999995" y="252.60000000000002" type="line"/>
      <point x="404.55999999999995" y="0.0" type="line"/>
      <point x="11.145000000000003" y="0.0" type="line"/>
      <point x="11.145000000000003" y="111.00000000000001" type="line"/>
      <point x="141.79000000000002" y="207.20000000000002"/>
      <point x="207.93" y="276.0"/>
      <point x="207.93" y="440.2" type="curve" smooth="yes"/>
      <point x="207.93" y="536.0"/>
      <point x="196.325" y="572.0"/>
      <point x="171.46" y="572.0" type="curve" smooth="yes"/>
      <point x="154.415" y="572.0"/>
      <point x="144.26" y="551.4"/>
      <point x="134.035" y="526.4" type="curve"/>
      <point x="133.69" y="529.6"/>
      <point x="151.435" y="579.2"/>
      <point x="148.435" y="579.6" type="curve"/>
      <point x="148.435" y="422.8" type="line"/>
      <point x="17.965000000000003" y="422.8" type="line"/>
      <point x="17.965000000000003" y="546.4" type="line"/>
      <point x="51.845000000000006" y="581.6"/>
      <point x="114.545" y="618.0"/>
      <point x="201.315" y="618.0" type="curve" smooth="yes"/>
      <point x="330.44" y="618.0"/>
      <point x="395.09499999999997" y="551.4"/>
      <point x="395.09499999999997" y="440.0" type="curve" smooth="yes"/>
      <point x="395.09499999999997" y="286.2"/>
      <point x="222.6" y="188.2"/>
      <point x="85.895" y="118.0" type="curve"/>
      <point x="86.53999999999999" y="118.60000000000001"/>
      <point x="81.1" y="136.2"/>
      <point x="80.515" y="137.60000000000002" type="curve"/>
    </contour>
  </outline>
</glyph>
<glyph name="O" format="2">
  <advance width="619"/>
  <unicode hex="004F"/>
  <outline>
    <contour>
      <point x="309.475" y="720.0" type="curve" smooth="yes"/>
      <point x="136.625" y="720.0"/>
      <point x="19.425" y="575.2"/>
      <point x="19.425" y="355.0" type="curve" smooth="yes"/>
      <point x="19.425" y="134.2"/>
      <point x="136.625" y="-10.0"/>
      <point x="309.475" y="-10.0" type="curve" smooth="yes"/>
      <point x="481.52" y="-10.0"/>
      <point x="598.5699999999999" y="134.2"/>
      <point x="598.5699999999999" y="355.0" type="curve" smooth="yes"/>
      <point x="598.5699999999999" y="575.2"/>
      <point x="481.52" y="720.0"/>
    </contour>
    <contour>
      <point x="309.475" y="39.6" type="curve" smooth="yes"/>
      <point x="256.605" y="39.6"/>
      <point x="242.92999999999998" y="132.2"/>
      <point x="242.92999999999998" y="355.0" type="curve" smooth="yes"/>
      <point x="242.92999999999998" y="569.8"/>
      <point x="256.605" y="670.4"/>
      <point x="309.475" y="670.4" type="curve" smooth="yes"/>
      <point x="361.24" y="670.4"/>
      <point x="375.065" y="569.7864048338369"/>
      <point x="375.065" y="355.0" type="curve" smooth="yes"/>
      <point x="375.065" y="132.21359516616315"/>
      <point x="361.24" y="39.6"/>
    </contour>
  </outline>
</glyph>
<glyph name="c" format="2">
  <advance width="447"/>
  <unicode hex="0063"/>
  <outline>
    <contour>
      <point x="296.615" y="43.6" type="curve" smooth="yes"/>
      <point x="248.095" y="43.6"/>
      <point x="221.7" y="102.85660377358491"/>
      <point x="221.7" y="261.6" type="curve" smooth="yes"/>
      <point x="221.7" y="426.4"/>
      <point x="245.69" y="486.4"/>
      <point x="276.065" y="486.4" type="curve" smooth="yes"/>
      <point x="287.0512676056338" y="486.4"/>
      <point x="290.6906206254639" y="475.0809922920501"/>
      <point x="297.195" y="457.4" type="curve"/>
      <point x="300" y="466"/>
      <point x="304" y="495"/>
      <point x="286.395" y="494.4" type="curve"/>
      <point x="286.395" y="352.4" type="line"/>
      <point x="420.04999999999995" y="352.4" type="line"/>
      <point x="420.04999999999995" y="482.2" type="line"/>
      <point x="402.385" y="502.2"/>
      <point x="343.205" y="532.8"/>
      <point x="256.4" y="532.8" type="curve" smooth="yes"/>
      <point x="108.955" y="532.8"/>
      <point x="15.675" y="431.4"/>
      <point x="15.675" y="261.6" type="curve" smooth="yes"/>
      <point x="15.675" y="89.81695167286246"/>
      <point x="116.54499999999999" y="-10.0"/>
      <point x="250.64999999999998" y="-10.0" type="curve" smooth="yes"/>
      <point x="353.635" y="-10.0"/>
      <point x="403.19" y="48.0"/>
      <point x="436.185" y="134.6" type="curve"/>
      <point x="404.605" y="159.6" type="line"/>
      <point x="384.22776244234285" y="99.5944595830309"/>
      <point x="347.54" y="43.6"/>
    </contour>
  </outline>
</glyph>
<glyph name="d" format="2">
  <advance width="521"/>
  <unicode hex="0064"/>
  <outline>
    <contour>
      <point x="302.485" y="0.0" type="line"/>
      <point x="513.755" y="0.0" type="line"/>
      <point x="513.755" y="38.0" type="line"/>
      <point x="505.015" y="39.6" type="line" smooth="yes"/>
      <point x="494.0385145235648" y="42.723133504247684"/>
      <point x="493.375" y="46.6"/>
      <point x="493.375" y="65.2" type="curve" smooth="yes"/>
      <point x="493.375" y="750.0" type="line"/>
      <point x="266.97" y="750.0" type="line"/>
      <point x="266.97" y="712.0" type="line"/>
      <point x="274.02" y="710.0" type="line" smooth="yes"/>
      <point x="284.5721159011909" y="705.0737919566254"/>
      <point x="290.145" y="701.2"/>
      <point x="290.145" y="682.6" type="curve" smooth="yes"/>
      <point x="290.145" y="108.0" type="line"/>
      <point x="302.485" y="104.0" type="line"/>
    </contour>
    <contour>
      <point x="185.64" y="-10.0" type="curve" smooth="yes"/>
      <point x="244.05" y="-10.0"/>
      <point x="276.77" y="23.4"/>
      <point x="305.59000000000003" y="90.6" type="curve"/>
      <point x="305.59000000000003" y="179.2" type="line"/>
      <point x="289.305" y="105.2"/>
      <point x="274.905" y="71.0"/>
      <point x="256.365" y="71.0" type="curve" smooth="yes"/>
      <point x="234.10999999999999" y="71.0"/>
      <point x="221.7" y="119.4"/>
      <point x="221.7" y="255.0" type="curve" smooth="yes"/>
      <point x="221.7" y="394.8"/>
      <point x="233.96" y="460.6"/>
      <point x="263.07" y="460.6" type="curve" smooth="yes"/>
      <point x="287.325" y="460.6"/>
      <point x="296.09" y="426.4"/>
      <point x="305.59000000000003" y="375.4" type="curve"/>
      <point x="305.59000000000003" y="453.2" type="line"/>
      <point x="280.415" y="506.8"/>
      <point x="243.51" y="532.8"/>
      <point x="191.195" y="532.8" type="curve" smooth="yes"/>
      <point x="88.485" y="532.8"/>
      <point x="15.675" y="418.4"/>
      <point x="15.675" y="255.0" type="curve" smooth="yes"/>
      <point x="15.675" y="95.2"/>
      <point x="80.55" y="-10.0"/>
    </contour>
  </outline>
</glyph>
<glyph name="e" format="2">
  <advance width="470.41999999999996"/>
  <unicode hex="0065"/>
  <outline>
    <contour>
      <point x="255.59499999999997" y="-10.0" type="curve" smooth="yes"/>
      <point x="359.11999999999995" y="-10.0"/>
      <point x="415.07" y="42.4"/>
      <point x="445.615" y="122.6" type="curve"/>
      <point x="413.53999999999996" y="148.0" type="line"/>
      <point x="390.53999999999996" y="89.4"/>
      <point x="349.69" y="44.4"/>
      <point x="298.91499999999996" y="44.4" type="curve" smooth="yes"/>
      <point x="233.535" y="44.4"/>
      <point x="218.055" y="104.2"/>
      <point x="218.055" y="259.6" type="curve" smooth="yes"/>
      <point x="218.055" y="439.2"/>
      <point x="227.73999999999998" y="486.4"/>
      <point x="246.785" y="486.4" type="curve" smooth="yes"/>
      <point x="267.73" y="486.4"/>
      <point x="274.975" y="452.6"/>
      <point x="275.93" y="299.8" type="curve"/>
      <point x="288.995" y="306.8" type="line"/>
      <point x="204.15" y="306.8" type="line"/>
      <point x="204.15" y="262.4" type="line"/>
      <point x="457.19499999999994" y="262.4" type="line"/>
      <point x="455.505" y="435.2"/>
      <point x="382.27" y="532.8"/>
      <point x="241.495" y="532.8" type="curve" smooth="yes"/>
      <point x="109.0" y="532.8"/>
      <point x="15.675" y="425.2417391304348"/>
      <point x="15.675" y="260.0" type="curve" smooth="yes"/>
      <point x="15.675" y="92.23134328358209"/>
      <point x="102.48" y="-10.0"/>
    </contour>
  </outline>
</glyph>
<glyph name="brokenbar" format="2">
  <advance width="236.26"/>
  <unicode hex="00A6"/>
  <outline>
    <contour>
      <point x="55.18" y="766.0" type="line"/>
      <point x="55.18" y="364.0" type="line"/>
      <point x="180.485" y="364.0" type="line"/>
      <point x="180.485" y="766.0" type="line"/>
    </contour>
    <contour>
      <point x="55.18" y="240.4" type="line"/>
      <point x="55.18" y="-161.6" type="line"/>
      <point x="180.485" y="-161.6" type="line"/>
      <point x="180.485" y="240.4" type="line"/>
    </contour>
  </outline>
</glyph>
<glyph name="section" format="2">
  <advance width="504.9"/>
  <unicode hex="00A7"/>
  <outline>
    <contour>
      <point x="263.76" y="400.2" type="curve"/>
      <point x="86.875" y="411.4"/>
      <point x="11.065000000000005" y="349.0"/>
      <point x="11.065000000000005" y="233.0" type="curve" smooth="yes"/>
      <point x="11.065000000000005" y="122.0"/>
      <point x="81.93" y="78.6"/>
      <point x="156.085" y="35.4" type="curve" smooth="yes"/>
      <point x="215.55031632597047" y="-1.1744565540789083"/>
      <point x="269.595" y="-23.0"/>
      <point x="269.595" y="-82.4" type="curve" smooth="yes"/>
      <point x="269.595" y="-126.8"/>
      <point x="258.1890909090909" y="-150.8"/>
      <point x="232.79" y="-150.8" type="curve" smooth="yes"/>
      <point x="196.14999999999998" y="-150.8"/>
      <point x="177.41500000000002" y="-122.6"/>
      <point x="155.3" y="-66.6" type="curve"/>
      <point x="148.2948628088576" y="-73.60002032461368"/>
      <point x="164.48528859915902" y="-129.21569216089702"/>
      <point x="191.64" y="-145.2" type="curve"/>
      <point x="191.64" y="-37.599999999999994" type="line"/>
      <point x="32.915" y="-37.599999999999994" type="line"/>
      <point x="32.915" y="-145.2" type="line"/>
      <point x="68.21000000000001" y="-199.6"/>
      <point x="143.72" y="-236.0"/>
      <point x="237.54" y="-236.0" type="curve" smooth="yes"/>
      <point x="355.695" y="-236.0"/>
      <point x="437.07" y="-162.6"/>
      <point x="437.07" y="-35.199999999999996" type="curve"/>
      <point x="437.07" y="75.4"/>
      <point x="367.7" y="135.2"/>
      <point x="293.89" y="178.60000000000002" type="curve" smooth="yes"/>
      <point x="234.03484674852984" y="215.97491060330907"/>
      <point x="178.645" y="234.2"/>
      <point x="178.645" y="291.4" type="curve" smooth="yes"/>
      <point x="178.645" y="347.2"/>
      <point x="227.73598805612443" y="372.3968444750046"/>
      <point x="281.895" y="376.2" type="curve"/>
      <point x="280.66499999999996" y="376.6"/>
      <point x="263.415" y="399.4"/>
    </contour>
    <contour>
      <point x="284.025" y="83.0" type="curve"/>
      <point x="427.40999999999997" y="102.2"/>
      <point x="493.59499999999997" y="158.4"/>
      <point x="493.59499999999997" y="272.8" type="curve"/>
      <point x="493.59499999999997" y="377.4"/>
      <point x="422.43" y="423.2"/>
      <point x="344.975" y="467.4" type="curve" smooth="yes"/>
      <point x="289.1545997002779" y="502.77417903958593"/>
      <point x="237.17" y="519.4"/>
      <point x="237.17" y="576.0" type="curve" smooth="yes"/>
      <point x="237.17" y="612.8"/>
      <point x="249.36031690140845" y="635.6"/>
      <point x="270.12" y="635.6" type="curve" smooth="yes"/>
      <point x="294.525" y="635.6"/>
      <point x="310.465" y="612.2"/>
      <point x="323.38" y="578.2" type="curve"/>
      <point x="342.8135064382286" y="604.0032904118091"/>
      <point x="316.7102062820539" y="628.0000196459099"/>
      <point x="302.495" y="629.2" type="curve"/>
      <point x="302.495" y="542.8" type="line"/>
      <point x="449.78999999999996" y="542.8" type="line"/>
      <point x="449.78999999999996" y="635.4" type="line"/>
      <point x="426.295" y="681.4"/>
      <point x="357.72999999999996" y="720.0"/>
      <point x="273.755" y="720.0" type="curve" smooth="yes"/>
      <point x="149.31" y="720.0"/>
      <point x="69.59" y="653.2"/>
      <point x="69.59" y="537.6" type="curve" smooth="yes"/>
      <point x="69.59" y="422.2"/>
      <point x="136.81" y="365.6"/>
      <point x="207.065" y="324.2" type="curve" smooth="yes"/>
      <point x="269.4751561770081" y="286.8258035297189"/>
      <point x="326.015" y="263.6"/>
      <point x="326.015" y="209.4" type="curve" smooth="yes"/>
      <point x="326.015" y="162.8"/>
      <point x="299.0080376814167" y="138.22412743577345"/>
      <point x="275.48" y="126.0" type="curve"/>
      <point x="276.515" y="123.4"/>
      <point x="285.945" y="84.4"/>
    </contour>
  </outline>
</glyph>
<glyph name="Hbar" format="2">
  <advance width="618.26"/>
  <unicode hex="0126"/>
  <outline>
    <contour>
      <point x="14.825000000000003" y="547.0" type="line"/>
      <point x="14.825000000000003" y="474.2" type="line"/>
      <point x="609.0699999999999" y="474.2" type="line"/>
      <point x="609.0699999999999" y="547.0" type="line"/>
    </contour>
    <contour>
      <point x="126.47" y="386.4" type="line"/>
      <point x="126.47" y="313.0" type="line"/>
      <point x="453.265" y="313.0" type="line"/>
      <point x="453.265" y="386.4" type="line"/>
    </contour>
    <contour>
      <point x="14.825000000000003" y="0.0" type="line"/>
      <point x="302.25" y="0.0" type="line"/>
      <point x="302.25" y="71.6" type="line"/>
      <point x="295.695" y="71.6" type="line" smooth="yes"/>
      <point x="282.17" y="71.6"/>
      <point x="266.69" y="74.6"/>
      <point x="266.69" y="81.6" type="curve" smooth="yes"/>
      <point x="266.69" y="628.4" type="line"/>
      <point x="266.69" y="635.4"/>
      <point x="282.17" y="638.4"/>
      <point x="295.695" y="638.4" type="curve" smooth="yes"/>
      <point x="302.25" y="638.4" type="line"/>
      <point x="302.25" y="710.0" type="line"/>
      <point x="14.825000000000003" y="710.0" type="line"/>
      <point x="14.825000000000003" y="638.4" type="line"/>
      <point x="23.22" y="638.4" type="line" smooth="yes"/>
      <point x="39.894999999999996" y="638.4"/>
      <point x="51.535000000000004" y="631.4"/>
      <point x="51.535000000000004" y="602.4" type="curve" smooth="yes"/>
      <point x="51.535000000000004" y="107.6" type="line" smooth="yes"/>
      <point x="51.535000000000004" y="78.6"/>
      <point x="39.85" y="71.6"/>
      <point x="23.22" y="71.6" type="curve" smooth="yes"/>
      <point x="14.825000000000003" y="71.6" type="line"/>
    </contour>
    <contour>
      <point x="322.45" y="0.0" type="line"/>
      <point x="609.0699999999999" y="0.0" type="line"/>
      <point x="609.0699999999999" y="71.6" type="line"/>
      <point x="601.48" y="71.6" type="line" smooth="yes"/>
      <point x="584.045" y="71.6"/>
      <point x="573.165" y="78.6"/>
      <point x="573.165" y="107.6" type="curve" smooth="yes"/>
      <point x="573.165" y="602.4" type="line" smooth="yes"/>
      <point x="573.165" y="631.4"/>
      <point x="583.895" y="638.4"/>
      <point x="601.48" y="638.4" type="curve" smooth="yes"/>
      <point x="609.0699999999999" y="638.4" type="line"/>
      <point x="609.0699999999999" y="710.0" type="line"/>
      <point x="322.45" y="710.0" type="line"/>
      <point x="322.45" y="638.4" type="line"/>
      <point x="328.2" y="638.4" type="line" smooth="yes"/>
      <point x="341.725" y="638.4"/>
      <point x="358.01" y="635.4"/>
      <point x="358.01" y="628.4" type="curve"/>
      <point x="358.01" y="81.6" type="line" smooth="yes"/>
      <point x="358.01" y="74.6"/>
      <point x="341.725" y="71.6"/>
      <point x="328.2" y="71.6" type="curve" smooth="yes"/>
      <point x="322.45" y="71.6" type="line"/>
    </contour>
  </outline>
</glyph>
<glyph name="Eng" format="2">
  <advance width="567.14"/>
  <unicode hex="014A"/>
  <outline>
    <contour>
      <point x="428.735" y="88.80000000000001" type="line"/>
      <point x="428.735" y="-9.4" type="line" smooth="yes"/>
      <point x="428.735" y="-92.0"/>
      <point x="404.745" y="-121.2"/>
      <point x="372.59999999999997" y="-121.2" type="curve" smooth="yes"/>
      <point x="340.03" y="-121.2"/>
      <point x="313.65999999999997" y="-103.6"/>
      <point x="299.435" y="-97.39999999999999" type="curve"/>
      <point x="299.435" y="-193.0" type="line"/>
      <point x="324.15999999999997" y="-206.0"/>
      <point x="352.865" y="-212.0"/>
      <point x="379.385" y="-212.0" type="curve" smooth="yes"/>
      <point x="470.225" y="-212.0"/>
      <point x="514.63" y="-140.8"/>
      <point x="514.63" y="-7.199999999999999" type="curve" smooth="yes"/>
      <point x="514.63" y="596.8" type="line"/>
      <point x="514.63" y="629.2"/>
      <point x="525.405" y="638.4"/>
      <point x="543.485" y="638.4" type="curve" smooth="yes"/>
      <point x="550.535" y="638.4" type="line"/>
      <point x="550.535" y="710.0" type="line"/>
      <point x="389.46000000000004" y="710.0" type="line"/>
      <point x="389.46000000000004" y="638.4" type="line"/>
      <point x="397.085" y="638.4" type="line" smooth="yes"/>
      <point x="414.52" y="638.4"/>
      <point x="432.875" y="630.8"/>
      <point x="432.875" y="619.6" type="curve" smooth="yes"/>
      <point x="432.875" y="151.2" type="line"/>
      <point x="478.90999999999997" y="283.20000000000005" type="line"/>
      <point x="322.96" y="710.0" type="line"/>
      <point x="14.825000000000003" y="710.0" type="line"/>
      <point x="14.825000000000003" y="638.4" type="line"/>
      <point x="22.575" y="638.4" type="line" smooth="yes"/>
      <point x="40.195" y="638.4"/>
      <point x="51.535000000000004" y="631.4"/>
      <point x="51.535000000000004" y="602.4" type="curve" smooth="yes"/>
      <point x="51.535000000000004" y="117.2" type="line" smooth="yes"/>
      <point x="51.535000000000004" y="84.80000000000001"/>
      <point x="39.85" y="71.6"/>
      <point x="22.575" y="71.6" type="curve" smooth="yes"/>
      <point x="14.825000000000003" y="71.6" type="line"/>
      <point x="14.825000000000003" y="0.0" type="line"/>
      <point x="175.79500000000002" y="0.0" type="line"/>
      <point x="175.79500000000002" y="71.6" type="line"/>
      <point x="168.17000000000002" y="71.6" type="line" smooth="yes"/>
      <point x="150.39000000000001" y="71.6"/>
      <point x="132.38" y="79.2"/>
      <point x="132.38" y="90.4" type="curve" smooth="yes"/>
      <point x="132.38" y="678.4" type="line"/>
      <point x="106.355" y="674.4" type="line"/>
      <point x="450.01" y="-106.0" type="line"/>
    </contour>
  </outline>
</glyph>
<glyph name="Schwa" format="2">
  <advance width="591.98"/>
  <unicode hex="018F"/>
  <outline>
    <contour>
      <point x="279.205" y="720.0" type="curve" smooth="yes"/>
      <point x="146.85999999999999" y="720.0"/>
      <point x="72.82000000000001" y="640.0"/>
      <point x="32.27" y="538.6" type="curve"/>
      <point x="100.34" y="488.8" type="line"/>
      <point x="127.745" y="558.6"/>
      <point x="171.425" y="632.8"/>
      <point x="242.52" y="632.8" type="curve" smooth="yes"/>
      <point x="326.37" y="632.8"/>
      <point x="348.855" y="537.2"/>
      <point x="348.855" y="356.8" type="curve" smooth="yes"/>
      <point x="348.855" y="153.2"/>
      <point x="333.235" y="77.2"/>
      <point x="297.375" y="77.2" type="curve" smooth="yes"/>
      <point x="262.895" y="77.2"/>
      <point x="250.025" y="131.0"/>
      <point x="247.725" y="336.6" type="curve"/>
      <point x="223.23" y="313.8" type="line"/>
      <point x="469.94" y="313.8" type="line"/>
      <point x="468.64" y="395.4" type="line"/>
      <point x="18.735" y="395.4" type="line"/>
      <point x="19.735" y="124.4"/>
      <point x="113.55499999999999" y="-10.0"/>
      <point x="297.375" y="-10.0" type="curve" smooth="yes"/>
      <point x="454.93" y="-10.0"/>
      <point x="571.75" y="139.4"/>
      <point x="571.75" y="357.2" type="curve" smooth="yes"/>
      <point x="571.75" y="580.0"/>
      <point x="464.96999999999997" y="720.0"/>
    </contour>
  </outline>
</glyph>
<glyph name="dotlessj" format="2">
  <advance width="250.385"/>
  <unicode hex="0237"/>
  <anchor x="128.32" y="543.4" name="top"/>
  <outline>
    <contour>
      <point x="28.81000000000001" y="-28.799999999999997" type="line" smooth="yes"/>
      <point x="28.81000000000001" y="-122.2"/>
      <point x="14.284999999999997" y="-154.2"/>
      <point x="-18.285" y="-154.2" type="curve" smooth="yes"/>
      <point x="-41.86" y="-154.2"/>
      <point x="-60.905" y="-144.2"/>
      <point x="-77.775" y="-137.6" type="curve"/>
      <point x="-77.775" y="-223.0" type="line"/>
      <point x="-66.32" y="-229.2"/>
      <point x="-25.23" y="-236.6"/>
      <point x="24.38" y="-236.6" type="curve" smooth="yes"/>
      <point x="171.56" y="-236.6"/>
      <point x="231.23499999999999" y="-174.6"/>
      <point x="231.23499999999999" y="-3.1999999999999886" type="curve" smooth="yes"/>
      <point x="231.23499999999999" y="514.8" type="line"/>
      <point x="-0.1599999999999966" y="514.8" type="line"/>
      <point x="-0.1599999999999966" y="444.8" type="line"/>
      <point x="4.245000000000001" y="442.8" type="line" smooth="yes"/>
      <point x="16.850000000000016" y="436.2"/>
      <point x="28.81000000000001" y="431.6"/>
      <point x="28.81000000000001" y="413.0" type="curve" smooth="yes"/>
    </contour>
  </outline>
</glyph>
<glyph name="verticallinelowmod" format="2">
  <advance width="376.8"/>
  <unicode hex="02CC"/>
  <outline>
    <contour>
      <point x="155.98" y="-250.0" type="line"/>
      <point x="220.715" y="-250.0" type="line"/>
      <point x="220.715" y="-47.0" type="line"/>
      <point x="155.98" y="-47.0" type="line"/>
    </contour>
  </outline>
</glyph>
<glyph name="endash" format="2">
  <advance width="468.675"/>
  <unicode hex="2013"/>
  <outline>
    <contour>
      <point x="47.37" y="341.6" type="line"/>
      <point x="47.37" y="289.2" type="line"/>
      <point x="421.2" y="289.2" type="line"/>
      <point x="421.2" y="341.6" type="line"/>
    </contour>
  </outline>
</glyph>
<glyph name="emdash" format="2">
  <advance width="717.095"/>
  <unicode hex="2014"/>
  <outline>
    <contour>
      <point x="47.37" y="341.6" type="line"/>
      <point x="47.37" y="289.2" type="line"/>
      <point x="669.62" y="289.2" type="line"/>
      <point x="669.62" y="341.6" type="line"/>
    </contour>
  </outline>
</glyph>
<glyph name="dagger" format="2">
  <advance width="437.38"/>
  <unicode hex="2020"/>
  <outline>
    <contour>
      <point x="179.75" y="468.8" type="line"/>
      <point x="257.525" y="468.8" type="line"/>
      <point x="386.26" y="390.79999999999995" type="line"/>
      <point x="418.725" y="390.79999999999995" type="line"/>
      <point x="418.725" y="580.0" type="line"/>
      <point x="386.26" y="580.0" type="line"/>
      <point x="257.525" y="517.8" type="line"/>
      <point x="179.75" y="517.8" type="line"/>
      <point x="51.015" y="580.0" type="line"/>
      <point x="18.55" y="580.0" type="line"/>
      <point x="18.55" y="390.79999999999995" type="line"/>
      <point x="51.015" y="390.79999999999995" type="line"/>
    </contour>
    <contour>
      <point x="334.33500000000004" y="710.0" type="line"/>
      <point x="102.94" y="710.0" type="line"/>
      <point x="102.94" y="669.0" type="line" smooth="yes"/>
      <point x="102.94" y="634.0"/>
      <point x="178.75" y="551.6"/>
      <point x="178.75" y="492.2" type="curve" smooth="yes"/>
      <point x="178.75" y="430.4"/>
      <point x="148.585" y="378.2"/>
      <point x="84.38000000000001" y="349.0" type="curve"/>
      <point x="84.38000000000001" y="323.0" type="line" smooth="yes"/>
      <point x="84.38000000000001" y="287.6"/>
      <point x="144.41" y="195.0"/>
      <point x="184.04" y="0.0" type="curve"/>
      <point x="253.235" y="0.0" type="line"/>
      <point x="292.865" y="195.0"/>
      <point x="352.895" y="287.6"/>
      <point x="352.895" y="323.0" type="curve" smooth="yes"/>
      <point x="352.895" y="349.0" type="line"/>
      <point x="288.69" y="378.2"/>
      <point x="258.525" y="430.4"/>
      <point x="258.525" y="492.2" type="curve" smooth="yes"/>
      <point x="258.525" y="551.6"/>
      <point x="334.33500000000004" y="634.0"/>
      <point x="334.33500000000004" y="669.0" type="curve" smooth="yes"/>
    </contour>
  </outline>
</glyph>
<glyph name="won" format="2">
  <advance width="423.95"/>
  <unicode hex="20A9"/>
  <outline>
    <contour>
      <point x="8.934999999999999" y="710.0" type="line"/>
      <point x="8.934999999999999" y="638.4" type="line"/>
      <point x="14.835" y="638.4" type="line" smooth="yes"/>
      <point x="22.805" y="638.4"/>
      <point x="29.165" y="633.0"/>
      <point x="29.925" y="608.6" type="curve" smooth="yes"/>
      <point x="45.095" y="0.0" type="line"/>
      <point x="195.24" y="0.0" type="line"/>
      <point x="217.415" y="683.0" type="line"/>
      <point x="209.445" y="689.0" type="line"/>
      <point x="219.74" y="0.0" type="line"/>
      <point x="369.885" y="0.0" type="line"/>
      <point x="389.885" y="595.4" type="line" smooth="yes"/>
      <point x="391.035" y="628.6"/>
      <point x="398.35" y="638.4"/>
      <point x="410.265" y="638.4" type="curve" smooth="yes"/>
      <point x="415.015" y="638.4" type="line"/>
      <point x="415.015" y="710.0" type="line"/>
      <point x="315.755" y="710.0" type="line"/>
      <point x="315.755" y="638.4" type="line"/>
      <point x="318.1" y="638.4" type="line" smooth="yes"/>
      <point x="323.38" y="638.4"/>
      <point x="331.2" y="634.6"/>
      <point x="331.2" y="626.8" type="curve"/>
      <point x="311.2" y="20.0" type="line"/>
      <point x="316.33" y="25.0" type="line"/>
      <point x="300.54999999999995" y="710.0" type="line"/>
      <point x="161.03" y="710.0" type="line"/>
      <point x="139.66" y="12.0" type="line"/>
      <point x="144.14499999999998" y="15.0" type="line"/>
      <point x="129.62" y="628.4" type="line"/>
      <point x="129.62" y="635.4"/>
      <point x="135.79500000000002" y="638.4"/>
      <point x="140.26999999999998" y="638.4" type="curve" smooth="yes"/>
      <point x="145.87" y="638.4" type="line"/>
      <point x="145.87" y="710.0" type="line"/>
    </contour>
    <contour>
      <point x="7.439999999999998" y="470.2" type="line"/>
      <point x="7.439999999999998" y="394.2" type="line"/>
      <point x="113.79499999999999" y="394.2" type="line"/>
      <point x="129.27499999999998" y="416.6" type="line"/>
      <point x="171.655" y="416.6" type="line"/>
      <point x="175.91" y="470.2" type="line"/>
    </contour>
    <contour>
      <point x="268.74" y="416.6" type="line"/>
      <point x="340.71" y="416.6" type="line"/>
      <point x="361.48" y="394.2" type="line"/>
      <point x="416.51" y="394.2" type="line"/>
      <point x="416.51" y="470.2" type="line"/>
      <point x="264.485" y="470.2" type="line"/>
    </contour>
    <contour>
      <point x="174.115" y="247.8" type="line"/>
      <point x="262.98" y="247.8" type="line"/>
      <point x="267.81" y="301.4" type="line"/>
      <point x="186.605" y="301.4" type="line"/>
    </contour>
    <contour>
      <point x="99.96" y="314.2" type="line"/>
      <point x="7.439999999999998" y="314.2" type="line"/>
      <point x="7.439999999999998" y="238.2" type="line"/>
      <point x="103.675" y="238.2" type="line"/>
    </contour>
    <contour>
      <point x="346.84000000000003" y="238.2" type="line"/>
      <point x="416.51" y="238.2" type="line"/>
      <point x="416.51" y="314.2" type="line"/>
      <point x="361.48" y="314.2" type="line"/>
    </contour>
  </outline>
</glyph>
<glyph name="uni20B4" format="2">
  <advance width="422.8"/>
  <unicode hex="20B4"/>
  <outline>
    <contour>
      <point x="15.445" y="467.8" type="line"/>
      <point x="15.445" y="397.4" type="line"/>
      <point x="407.355" y="397.4" type="line"/>
      <point x="407.355" y="467.8" type="line"/>
    </contour>
    <contour>
      <point x="15.445" y="329.6" type="line"/>
      <point x="15.445" y="259.2" type="line"/>
      <point x="407.355" y="259.2" type="line"/>
      <point x="407.355" y="329.6" type="line"/>
    </contour>
    <contour>
      <point x="210.78" y="720.0" type="curve" smooth="yes"/>
      <point x="121.215" y="720.0"/>
      <point x="58.5939250948126" y="680.1907030262369"/>
      <point x="41.77" y="661.6" type="curve"/>
      <point x="41.77" y="547.0" type="line"/>
      <point x="150.735" y="547.0" type="line"/>
      <point x="150.735" y="645.2" type="line"/>
      <point x="124.05499999999999" y="648.2"/>
      <point x="116.82" y="600.4"/>
      <point x="128.96499999999997" y="586.8" type="curve"/>
      <point x="147.01999999999998" y="616.2"/>
      <point x="158.97" y="634.0"/>
      <point x="182.075" y="634.0" type="curve"/>
      <point x="201.72000000000003" y="634.0"/>
      <point x="219.43" y="609.6055555555556"/>
      <point x="219.43" y="571.2" type="curve" smooth="yes"/>
      <point x="219.43" y="511.8"/>
      <point x="177.22500000000002" y="474.8"/>
      <point x="121.80499999999999" y="452.4" type="curve"/>
      <point x="324.41499999999996" y="432.2" type="line"/>
      <point x="367.965" y="461.6"/>
      <point x="384.78" y="504.8"/>
      <point x="384.78" y="565.4" type="curve" smooth="yes"/>
      <point x="384.78" y="652.6"/>
      <point x="335.42" y="720.0"/>
    </contour>
    <contour>
      <point x="227.04" y="-10.0" type="curve" smooth="yes"/>
      <point x="311.625" y="-10.0"/>
      <point x="382.74598646311983" y="34.00883680086288"/>
      <point x="403.065" y="53.4" type="curve"/>
      <point x="403.065" y="190.0" type="line"/>
      <point x="285.51" y="190.0" type="line"/>
      <point x="285.51" y="78.2" type="line"/>
      <point x="313.145" y="75.2"/>
      <point x="320.77" y="127.0"/>
      <point x="312.03000000000003" y="129.6" type="curve"/>
      <point x="291.2485780137867" y="98.4155834850662"/>
      <point x="277.15999999999997" y="76.0"/>
      <point x="244.865" y="76.0" type="curve" smooth="yes"/>
      <point x="216.505" y="76.0"/>
      <point x="204.09499999999997" y="100.8"/>
      <point x="204.09499999999997" y="152.2" type="curve" smooth="yes"/>
      <point x="204.09499999999997" y="208.4"/>
      <point x="245.49499999999998" y="271.2"/>
      <point x="330.35499999999996" y="288.0" type="curve"/>
      <point x="103.675" y="294.2" type="line"/>
      <point x="64.115" y="274.4"/>
      <point x="36.745000000000005" y="227.4"/>
      <point x="36.745000000000005" y="163.6" type="curve" smooth="yes"/>
      <point x="36.745000000000005" y="53.0"/>
      <point x="96.11" y="-10.0"/>
    </contour>
  </outline>
</glyph>
<glyph name="uni20B8" format="2">
  <advance width="422.8"/>
  <unicode hex="20B8"/>
  <outline>
    <contour>
      <point x="119.215" y="107.6" type="line" smooth="yes"/>
      <point x="119.215" y="78.6"/>
      <point x="108.83000000000001" y="71.6"/>
      <point x="92.05000000000001" y="71.6" type="curve" smooth="yes"/>
      <point x="81.745" y="71.6" type="line"/>
      <point x="81.745" y="0.0" type="line"/>
      <point x="340.90500000000003" y="0.0" type="line"/>
      <point x="340.90500000000003" y="71.6" type="line"/>
      <point x="330.6" y="71.6" type="line" smooth="yes"/>
      <point x="312.775" y="71.6"/>
      <point x="303.435" y="78.6"/>
      <point x="303.435" y="107.6" type="curve" smooth="yes"/>
      <point x="303.435" y="470.4" type="line"/>
      <point x="303.53999999999996" y="470.4" type="line" smooth="yes"/>
      <point x="312.305" y="470.4"/>
      <point x="334.26" y="461.8"/>
      <point x="334.87" y="422.2" type="curve" smooth="yes"/>
      <point x="337.94" y="321.6" type="line"/>
      <point x="416.98" y="321.6" type="line"/>
      <point x="416.98" y="551.2" type="line"/>
      <point x="5.670000000000005" y="551.2" type="line"/>
      <point x="5.670000000000005" y="321.6" type="line"/>
      <point x="84.71000000000001" y="321.6" type="line"/>
      <point x="87.88499999999999" y="422.2" type="line" smooth="yes"/>
      <point x="88.495" y="461.8"/>
      <point x="110.0" y="470.4"/>
      <point x="119.11" y="470.4" type="curve" smooth="yes"/>
      <point x="119.215" y="470.4" type="line"/>
    </contour>
    <contour>
      <point x="5.670000000000005" y="710.0" type="line"/>
      <point x="5.670000000000005" y="629.2" type="line"/>
      <point x="416.98" y="629.2" type="line"/>
      <point x="416.98" y="710.0" type="line"/>
    </contour>
  </outline>
</glyph>
<glyph name="numero" format="2">
  <advance width="951.575"/>
  <unicode hex="2116"/>
  <outline>
    <contour>
      <point x="601.895" y="237.2" type="line"/>
      <point x="892.13" y="237.2" type="line"/>
      <point x="892.13" y="146.2" type="line"/>
      <point x="601.895" y="146.2" type="line"/>
    </contour>
    <component base="N" xOffset="-146.23000000000002"/>
    <component base="ordmasculine" xOffset="562.72"/>
  </outline>
</glyph>
<glyph name="emptyset" format="2">
  <advance width="524.36"/>
  <unicode hex="2205"/>
  <outline>
    <contour>
      <point x="49.75" y="270.8" type="curve" smooth="yes"/>
      <point x="49.75" y="110.4"/>
      <point x="145.055" y="-10.0"/>
      <point x="262.06" y="-10.0" type="curve" smooth="yes"/>
      <point x="378.96" y="-10.0"/>
      <point x="475.07" y="110.4"/>
      <point x="475.07" y="270.8" type="curve" smooth="yes"/>
      <point x="475.07" y="431.4"/>
      <point x="378.96" y="551.6"/>
      <point x="262.06" y="551.6" type="curve" smooth="yes"/>
      <point x="145.055" y="551.6"/>
      <point x="49.75" y="431.4"/>
    </contour>
    <contour>
      <point x="460.235" y="590.8" type="line"/>
      <point x="23.22" y="-5.799999999999999" type="line"/>
      <point x="64.125" y="-49.400000000000006" type="line"/>
      <point x="501.14" y="547.2" type="line"/>
    </contour>
    <contour>
      <point x="262.06" y="56.2" type="curve" smooth="yes"/>
      <point x="181.51" y="56.2"/>
      <point x="114.98" y="145.58571428572"/>
      <point x="114.98" y="270.8" type="curve" smooth="yes"/>
      <point x="114.98" y="395.815"/>
      <point x="181.015" y="485.4"/>
      <point x="262.06" y="485.4" type="curve" smooth="yes"/>
      <point x="346.105" y="485.4"/>
      <point x="409.84" y="397.01357142856"/>
      <point x="409.84" y="270.8" type="curve" smooth="yes"/>
      <point x="409.84" y="145.38357142856"/>
      <point x="346.45" y="56.2"/>
    </contour>
  </outline>
</glyph>
<glyph name="minus" format="2">
  <advance width="422.8"/>
  <unicode hex="2212"/>
  <outline>
    <contour>
      <point x="383.065" y="364.2" type="line"/>
      <point x="39.735" y="364.2" type="line"/>
      <point x="39.735" y="317.8" type="line"/>
      <point x="383.065" y="317.8" type="line"/>
    </contour>
  </outline>
</glyph>
<glyph name="Euro.proportional" format="2">
  <advance width="547.935"/>
  <outline>
    <contour>
      <point x="37.144999999999996" y="463.8" type="line"/>
      <point x="37.144999999999996" y="385.4" type="line"/>
      <point x="384.525" y="385.4" type="line"/>
      <point x="384.525" y="463.8" type="line"/>
    </contour>
    <contour>
      <point x="37.144999999999996" y="303.2" type="line"/>
      <point x="37.144999999999996" y="224.8" type="line"/>
      <point x="362.19" y="224.8" type="line"/>
      <point x="362.19" y="303.2" type="line"/>
    </contour>
    <contour>
      <point x="280.375" y="355.0" type="curve" smooth="yes"/>
      <point x="280.375" y="533.5547169812"/>
      <point x="297.68499999999995" y="636.4"/>
      <point x="356.51" y="636.4" type="curve" smooth="yes"/>
      <point x="391.265" y="636.4"/>
      <point x="410.805" y="607.0"/>
      <point x="432.495" y="549.4" type="curve"/>
      <point x="435.90999999999997" y="587.0"/>
      <point x="425.78999999999996" y="619.4"/>
      <point x="391.255" y="631.6" type="curve"/>
      <point x="391.255" y="516.6" type="line"/>
      <point x="526.025" y="516.6" type="line"/>
      <point x="526.025" y="658.2" type="line"/>
      <point x="509.465" y="678.0"/>
      <point x="440.70500000000004" y="720.0"/>
      <point x="345.92999999999995" y="720.0" type="curve" smooth="yes"/>
      <point x="181.005" y="720.0"/>
      <point x="76.34" y="588.8"/>
      <point x="76.34" y="355.0" type="curve" smooth="yes"/>
      <point x="76.34" y="124.2"/>
      <point x="182.925" y="-10.0"/>
      <point x="335.54499999999996" y="-10.0" type="curve" smooth="yes"/>
      <point x="456.69" y="-10.0"/>
      <point x="512.19" y="89.0"/>
      <point x="532.4549999999999" y="217.4" type="curve"/>
      <point x="462.54499999999996" y="245.8" type="line"/>
      <point x="447.94" y="149.6"/>
      <point x="418.09499999999997" y="74.80000000000001"/>
      <point x="368.20500000000004" y="74.80000000000001" type="curve" smooth="yes"/>
      <point x="304.86" y="74.80000000000001"/>
      <point x="280.375" y="171.41811320752"/>
    </contour>
  </outline>
</glyph>
<glyph name="at.uc" format="2">
  <advance width="698.5550000000001"/>
  <outline>
    <contour>
      <point x="354.545" y="16.6" type="curve" smooth="yes"/>
      <point x="203.085" y="16.6"/>
      <point x="95.82" y="119.4"/>
      <point x="95.82" y="313.2" type="curve" smooth="yes"/>
      <point x="95.82" y="505.6"/>
      <point x="216.23" y="655.0"/>
      <point x="380.225" y="655.0" type="curve" smooth="yes"/>
      <point x="528.315" y="655.0"/>
      <point x="601.93" y="558.8"/>
      <point x="601.93" y="413.0" type="curve" smooth="yes"/>
      <point x="601.93" y="275.90884615392"/>
      <point x="556.975" y="196.0"/>
      <point x="528.085" y="196.0" type="curve" smooth="yes"/>
      <point x="515.1" y="196.0"/>
      <point x="516.365" y="211.2"/>
      <point x="520.425" y="250.8" type="curve" smooth="yes"/>
      <point x="558.525" y="542.2" type="line"/>
      <point x="427.55" y="542.2" type="line"/>
      <point x="400.755" y="468.2" type="line"/>
      <point x="392.52" y="463.0" type="line"/>
      <point x="364.46" y="218.0" type="line"/>
      <point x="367.90999999999997" y="214.2"/>
      <point x="375.305" y="212.2"/>
      <point x="376.84499999999997" y="220.4" type="curve"/>
      <point x="389.53" y="165.4"/>
      <point x="425.515" y="124.4"/>
      <point x="498.875" y="124.4" type="curve" smooth="yes"/>
      <point x="597.42" y="124.4"/>
      <point x="686.905" y="230.71144827592"/>
      <point x="686.905" y="413.0" type="curve" smooth="yes"/>
      <point x="686.905" y="604.6"/>
      <point x="574.4649999999999" y="733.0"/>
      <point x="380.225" y="733.0" type="curve" smooth="yes"/>
      <point x="172.92" y="733.0"/>
      <point x="11.755000000000003" y="554.6"/>
      <point x="11.755000000000003" y="313.2" type="curve" smooth="yes"/>
      <point x="11.755000000000003" y="68.8"/>
      <point x="158.97" y="-61.4"/>
      <point x="354.545" y="-61.4" type="curve" smooth="yes"/>
      <point x="444.57" y="-61.4"/>
      <point x="530.88" y="-33.8"/>
      <point x="585.8050000000001" y="1.4000000000000004" type="curve"/>
      <point x="566.025" y="77.0" type="line"/>
      <point x="507.155" y="42.00000000000001"/>
      <point x="436.095" y="16.6"/>
    </contour>
    <contour>
      <point x="295.065" y="118.4" type="curve" smooth="yes"/>
      <point x="362.595" y="118.4"/>
      <point x="389.265" y="182.2"/>
      <point x="429.345" y="295.4" type="curve"/>
      <point x="405.7" y="342.4" type="line"/>
      <point x="373.625" y="245.6"/>
      <point x="353.245" y="192.4"/>
      <point x="332.51" y="192.4" type="curve" smooth="yes"/>
      <point x="314.27" y="192.4"/>
      <point x="308.945" y="222.2"/>
      <point x="308.945" y="283.0" type="curve" smooth="yes"/>
      <point x="308.945" y="376.4"/>
      <point x="328.795" y="474.2"/>
      <point x="360.02" y="474.2" type="curve" smooth="yes"/>
      <point x="382.25" y="474.2"/>
      <point x="393.475" y="444.4"/>
      <point x="409.68" y="369.8" type="curve"/>
      <point x="411.945" y="361.4"/>
      <point x="434.68" y="403.4"/>
      <point x="431.335" y="412.0" type="curve"/>
      <point x="415.315" y="512.0"/>
      <point x="395.545" y="548.2"/>
      <point x="328.28" y="548.2" type="curve" smooth="yes"/>
      <point x="223.66" y="548.2"/>
      <point x="153.175" y="418.8"/>
      <point x="153.175" y="297.2" type="curve" smooth="yes"/>
      <point x="153.175" y="179.6"/>
      <point x="216.15" y="118.4"/>
    </contour>
  </outline>
</glyph>
<glyph name="bar.uc" format="2">
  <advance width="236.26"/>
  <outline>
    <contour>
      <point x="55.18" y="742.0" type="line"/>
      <point x="55.18" y="-35.2" type="line"/>
      <point x="180.485" y="-35.2" type="line"/>
      <point x="180.485" y="742.0" type="line"/>
    </contour>
  </outline>
</glyph>
<glyph name="blackleftpointingtriangle" format="2">
  <advance width="607.6"/>
  <outline>
    <contour>
      <point x="562.3" y="-39.0" type="line"/>
      <point x="562.3" y="755.0" type="line"/>
      <point x="45.3" y="358.0" type="line"/>
    </contour>
  </outline>
</glyph>
<glyph name="circumflex_acute" format="2">
  <advance width="384.7"/>
  <anchor x="176.6" y="558.0" name="_top"/>
  <outline>
    <contour>
      <point x="346.275" y="807.8" type="curve" smooth="yes"/>
      <point x="326.805" y="709.4" type="line"/>
      <point x="326.805" y="681.2" type="line"/>
      <point x="386.06499999999994" y="681.2" type="line"/>
      <point x="439.14" y="733.0" type="line" smooth="yes"/>
      <point x="484.875" y="763.2"/>
      <point x="505.0" y="796.4"/>
      <point x="505.0" y="836.0" type="curve" smooth="yes"/>
      <point x="505.0" y="874.0"/>
      <point x="477.585" y="903.0"/>
      <point x="436.23" y="903.0" type="curve" smooth="yes"/>
      <point x="385.445" y="903.0"/>
      <point x="362.26" y="867.8"/>
    </contour>
    <component base="circumflex" xOffset="-95.4"/>
  </outline>
</glyph>
<glyph name="commaaccent" format="2">
  <advance width="377.5"/>
  <anchor x="182.5" y="33.0" name="_bottom"/>
  <outline>
    <contour>
      <point x="157.545" y="-333.0" type="line"/>
      <point x="216.26075206037444" y="-268.88234769827227"/>
      <point x="246.97" y="-211.6"/>
      <point x="246.97" y="-144.8" type="curve" smooth="yes"/>
      <point x="246.97" y="-80.2"/>
      <point x="210.86059405940594" y="-50.0"/>
      <point x="161.845" y="-50.0" type="curve" smooth="yes"/>
      <point x="110.66187500000001" y="-50.0"/>
      <point x="81.08000000000001" y="-83.2"/>
      <point x="81.08000000000001" y="-124.8" type="curve" smooth="yes"/>
      <point x="81.08000000000001" y="-167.8"/>
      <point x="109.25500000000001" y="-197.6"/>
      <point x="152.565" y="-197.6" type="curve" smooth="yes"/>
      <point x="164.825" y="-197.6"/>
      <point x="175.67000000000002" y="-195.4"/>
      <point x="182.96" y="-189.2" type="curve"/>
      <point x="176.39729984089166" y="-182.37139990315143"/>
      <point x="170.036094430166" y="-160.0045680563451"/>
      <point x="171.53" y="-166.4" type="curve"/>
      <point x="168.46981059865558" y="-208.6014163926627"/>
      <point x="124.82384743063682" y="-239.19991554181797"/>
      <point x="71.58" y="-282.6" type="curve"/>
    </contour>
  </outline>
</glyph>
<glyph name="dollar.proportional" format="2">
  <advance width="466.57"/>
  <outline>
    <contour>
      <point x="187.25" y="790.0" type="line"/>
      <point x="187.25" y="650.0" type="line"/>
      <point x="200.475" y="631.6" type="line"/>
      <point x="200.475" y="74.4" type="line"/>
      <point x="187.25" y="53.2" type="line"/>
      <point x="187.25" y="-120.0" type="line"/>
      <point x="278.32" y="-120.0" type="line"/>
      <point x="278.32" y="51.6" type="line"/>
      <point x="265.9" y="75.6" type="line"/>
      <point x="265.9" y="636.8" type="line"/>
      <point x="278.32" y="655.8" type="line"/>
      <point x="278.32" y="790.0" type="line"/>
    </contour>
    <contour>
      <point x="227.5" y="93.6" type="curve" smooth="yes"/>
      <point x="163.995" y="93.6"/>
      <point x="113.095" y="127.4"/>
      <point x="89.22" y="166.6" type="curve"/>
      <point x="82.78999999999999" y="159.8"/>
      <point x="109.195" y="101.2"/>
      <point x="137.935" y="104.0" type="curve"/>
      <point x="137.935" y="212.2" type="line"/>
      <point x="15.940000000000001" y="212.2" type="line"/>
      <point x="15.940000000000001" y="85.8" type="line"/>
      <point x="48.510000000000005" y="49.8"/>
      <point x="122.64" y="12.0"/>
      <point x="230.905" y="12.0" type="curve" smooth="yes"/>
      <point x="369.425" y="12.0"/>
      <point x="449.135" y="89.6"/>
      <point x="449.135" y="238.0" type="curve" smooth="yes"/>
      <point x="449.135" y="367.4"/>
      <point x="376.705" y="418.4"/>
      <point x="249.995" y="461.2" type="curve" smooth="yes"/>
      <point x="199.945" y="483.0"/>
      <point x="156.14999999999998" y="491.0"/>
      <point x="156.14999999999998" y="549.8" type="curve"/>
      <point x="156.14999999999998" y="594.0"/>
      <point x="182.08499999999998" y="617.2"/>
      <point x="235.09" y="617.2" type="curve" smooth="yes"/>
      <point x="280.725" y="617.2"/>
      <point x="319.93" y="602.4"/>
      <point x="349.91" y="566.2" type="curve"/>
      <point x="355.5" y="571.8"/>
      <point x="344.38" y="625.0"/>
      <point x="314.03000000000003" y="623.8" type="curve"/>
      <point x="314.03000000000003" y="520.4" type="line"/>
      <point x="425.83500000000004" y="520.4" type="line"/>
      <point x="425.83500000000004" y="638.4" type="line"/>
      <point x="395.66999999999996" y="664.8"/>
      <point x="318.4" y="698.0"/>
      <point x="235.39" y="698.0" type="curve" smooth="yes"/>
      <point x="109.185" y="698.0"/>
      <point x="22.565000000000005" y="625.8"/>
      <point x="22.565000000000005" y="497.4" type="curve" smooth="yes"/>
      <point x="22.565000000000005" y="370.6"/>
      <point x="95.22500000000001" y="314.2"/>
      <point x="200.625" y="276.4" type="curve" smooth="yes"/>
      <point x="277.815" y="246.2"/>
      <point x="307.81" y="234.8"/>
      <point x="307.81" y="172.4" type="curve" smooth="yes"/>
      <point x="307.81" y="115.0"/>
      <point x="279.76" y="93.6"/>
    </contour>
  </outline>
</glyph>
<glyph name="g.alt" format="2">
  <advance width="524.115"/>
  <outline>
    <contour>
      <point x="289.65" y="-16.6" type="line" smooth="yes"/>
      <point x="289.65" y="-130.84145454545455"/>
      <point x="268.16276315789474" y="-187.2"/>
      <point x="212.7" y="-187.2" type="curve" smooth="yes"/>
      <point x="179.29" y="-187.2"/>
      <point x="161.78499999999997" y="-165.0"/>
      <point x="149.675" y="-134.8" type="curve"/>
      <point x="141.13" y="-155.2"/>
      <point x="151.58499999999998" y="-173.4"/>
      <point x="169.445" y="-173.8" type="curve"/>
      <point x="169.445" y="-51.4" type="line"/>
      <point x="26.095000000000002" y="-51.4" type="line"/>
      <point x="26.095000000000002" y="-148.2" type="line"/>
      <point x="57.525" y="-190.8"/>
      <point x="126.125" y="-234.6"/>
      <point x="239.15" y="-234.6" type="curve" smooth="yes"/>
      <point x="388.3615501519757" y="-234.6"/>
      <point x="492.88" y="-138.0"/>
      <point x="492.88" y="45.2" type="curve" smooth="yes"/>
      <point x="492.88" y="524.4" type="line"/>
      <point x="355.305" y="524.4" type="line"/>
      <point x="296.7" y="428.0" type="line"/>
      <point x="289.65" y="424.0" type="line"/>
    </contour>
    <contour>
      <point x="221.50499999999997" y="262.8" type="curve" smooth="yes"/>
      <point x="221.50499999999997" y="396.6921212121212"/>
      <point x="233.915" y="460.2"/>
      <point x="264.105" y="460.2" type="curve" smooth="yes"/>
      <point x="289.28" y="460.2"/>
      <point x="300.045" y="420.6"/>
      <point x="305.21" y="353.4" type="curve"/>
      <point x="340.78" y="385.8" type="line"/>
      <point x="323.77" y="480.0"/>
      <point x="274.63" y="532.8"/>
      <point x="194.69" y="532.8" type="curve" smooth="yes"/>
      <point x="88.68" y="532.8"/>
      <point x="15.48" y="424.6438709677419"/>
      <point x="15.48" y="262.8" type="curve" smooth="yes"/>
      <point x="15.48" y="102.99710843373494"/>
      <point x="79.4" y="5.0"/>
      <point x="180.66" y="5.0" type="curve" smooth="yes"/>
      <point x="262.945" y="5.0"/>
      <point x="297.965" y="61.8"/>
      <point x="329.2" y="177.8" type="curve"/>
      <point x="304.36" y="202.8" type="line"/>
      <point x="289.465" y="124.2"/>
      <point x="275.055" y="86.4"/>
      <point x="256.86" y="86.4" type="curve" smooth="yes"/>
      <point x="233.91500000000002" y="86.4"/>
      <point x="221.50499999999997" y="132.73579617834395"/>
    </contour>
  </outline>
</glyph>
<glyph name="minus.sup" format="2">
  <advance width="310.28"/>
  <outline>
    <contour>
      <point x="268.74" y="563.4" type="line"/>
      <point x="42.345" y="563.4" type="line"/>
      <point x="42.345" y="480.2" type="line"/>
      <point x="268.74" y="480.2" type="line"/>
    </contour>
  </outline>
</glyph>
<glyph name="naira.proportional" format="2">
  <advance width="545.22"/>
  <outline>
    <contour>
      <point x="14.825000000000001" y="0.0" type="line"/>
      <point x="175.795" y="0.0" type="line"/>
      <point x="175.795" y="71.6" type="line"/>
      <point x="168.17000000000002" y="71.6" type="line" smooth="yes"/>
      <point x="150.39" y="71.6"/>
      <point x="132.38" y="79.2"/>
      <point x="132.38" y="90.4" type="curve" smooth="yes"/>
      <point x="132.38" y="678.4" type="line"/>
      <point x="106.355" y="674.4" type="line"/>
      <point x="267.1" y="0.0" type="line"/>
      <point x="492.71000000000004" y="0.0" type="line"/>
      <point x="492.71000000000004" y="596.8" type="line" smooth="yes"/>
      <point x="492.71000000000004" y="629.2"/>
      <point x="504.28999999999996" y="638.4"/>
      <point x="521.5649999999999" y="638.4" type="curve" smooth="yes"/>
      <point x="529.42" y="638.4" type="line"/>
      <point x="529.42" y="710.0" type="line"/>
      <point x="368.34499999999997" y="710.0" type="line"/>
      <point x="368.34499999999997" y="638.4" type="line"/>
      <point x="375.97" y="638.4" type="line" smooth="yes"/>
      <point x="392.6" y="638.4"/>
      <point x="411.76" y="630.8"/>
      <point x="411.76" y="619.6" type="curve" smooth="yes"/>
      <point x="411.76" y="89.2" type="line"/>
      <point x="430.195" y="91.60000000000001" type="line"/>
      <point x="306.745" y="710.0" type="line"/>
      <point x="14.825000000000001" y="710.0" type="line"/>
      <point x="14.825000000000001" y="638.4" type="line"/>
      <point x="22.575" y="638.4" type="line" smooth="yes"/>
      <point x="40.19500000000001" y="638.4"/>
      <point x="51.535000000000004" y="631.4"/>
      <point x="51.535000000000004" y="602.4" type="curve" smooth="yes"/>
      <point x="51.535000000000004" y="117.2" type="line" smooth="yes"/>
      <point x="51.535000000000004" y="84.80000000000001"/>
      <point x="39.85000000000001" y="71.6"/>
      <point x="22.575" y="71.6" type="curve" smooth="yes"/>
      <point x="14.825000000000001" y="71.6" type="line"/>
    </contour>
    <contour>
      <point x="14.825" y="484.8" type="line"/>
      <point x="14.825" y="410.4" type="line"/>
      <point x="102.1" y="410.4" type="line"/>
      <point x="101.905" y="484.8" type="line"/>
    </contour>
    <contour>
      <point x="235.725" y="418.4" type="line"/>
      <point x="438.82" y="418.4" type="line"/>
      <point x="458.405" y="410.4" type="line"/>
      <point x="529.42" y="410.4" type="line"/>
      <point x="529.42" y="484.8" type="line"/>
      <point x="226.685" y="484.8" type="line"/>
    </contour>
    <contour>
      <point x="459.14" y="247.4" type="line"/>
      <point x="529.42" y="247.4" type="line"/>
      <point x="529.42" y="321.8" type="line"/>
      <point x="458.945" y="321.8" type="line"/>
    </contour>
    <contour>
      <point x="14.825" y="321.8" type="line"/>
      <point x="14.825" y="247.4" type="line"/>
      <point x="302.3" y="247.4" type="line"/>
      <point x="300.355" y="313.8" type="line"/>
      <point x="98.57" y="313.8" type="line"/>
      <point x="78.595" y="321.8" type="line"/>
    </contour>
  </outline>
</glyph>
<glyph name="ruble.proportional" format="2">
  <advance width="468.755"/>
  <outline>
    <contour>
      <point x="12.905000000000005" y="377.4" type="line"/>
      <point x="234.505" y="377.4" type="line" smooth="yes"/>
      <point x="260.865" y="377.4"/>
      <point x="286.305" y="421.0"/>
      <point x="286.305" y="509.6" type="curve" smooth="yes"/>
      <point x="286.305" y="593.8"/>
      <point x="260.865" y="628.6"/>
      <point x="238.0" y="628.6" type="curve" smooth="yes"/>
      <point x="232.685" y="628.6" type="line"/>
      <point x="232.685" y="84.80000000000001" type="line" smooth="yes"/>
      <point x="232.685" y="74.6"/>
      <point x="246.28" y="71.6"/>
      <point x="257.815" y="71.6" type="curve" smooth="yes"/>
      <point x="276.1" y="71.6" type="line"/>
      <point x="276.1" y="0.0" type="line"/>
      <point x="12.905000000000005" y="0.0" type="line"/>
      <point x="12.905000000000005" y="71.6" type="line"/>
      <point x="21.3" y="71.6" type="line" smooth="yes"/>
      <point x="37.93000000000001" y="71.6"/>
      <point x="49.61500000000001" y="78.6"/>
      <point x="49.61500000000001" y="107.6" type="curve" smooth="yes"/>
      <point x="49.61500000000001" y="602.4" type="line" smooth="yes"/>
      <point x="49.61500000000001" y="631.4"/>
      <point x="37.97500000000001" y="638.4"/>
      <point x="21.3" y="638.4" type="curve" smooth="yes"/>
      <point x="12.905000000000005" y="638.4" type="line"/>
      <point x="12.905000000000005" y="710.0" type="line"/>
      <point x="246.89" y="710.0" type="line" smooth="yes"/>
      <point x="378.81" y="710.0"/>
      <point x="462.2" y="641.0"/>
      <point x="462.2" y="513.8" type="curve" smooth="yes"/>
      <point x="462.2" y="382.0"/>
      <point x="373.82" y="304.6"/>
      <point x="246.28" y="304.6" type="curve" smooth="yes"/>
      <point x="12.905000000000005" y="304.6" type="line"/>
    </contour>
    <contour>
      <point x="306.635" y="167.2" type="line"/>
      <point x="12.905000000000005" y="167.2" type="line"/>
      <point x="12.905000000000005" y="240.0" type="line"/>
      <point x="306.635" y="240.0" type="line"/>
    </contour>
  </outline>
</glyph>
<glyph name="seven.old" format="2">
  <advance width="422.8"/>
  <outline>
    <contour>
      <point x="168.665" y="405.6" type="line" smooth="yes"/>
      <point x="125.975" y="405.6"/>
      <point x="109.61" y="397.8"/>
      <point x="107.04499999999999" y="358.2" type="curve" smooth="yes"/>
      <point x="102.525" y="284.2" type="line"/>
      <point x="36.71" y="284.2" type="line"/>
      <point x="36.71" y="548.0" type="line"/>
      <point x="408.665" y="548.0" type="line"/>
      <point x="408.665" y="421.6" type="line"/>
      <point x="332.785" y="276.0"/>
      <point x="292.16499999999996" y="173.6"/>
      <point x="288.185" y="-137.4" type="curve"/>
      <point x="108.15" y="-137.4" type="line"/>
      <point x="123.36500000000001" y="154.2"/>
      <point x="277.805" y="358.4"/>
      <point x="351.2" y="442.6" type="curve"/>
      <point x="373.705" y="405.6" type="line"/>
    </contour>
  </outline>
</glyph>
<glyph name="uni20B4.proportional" format="2">
  <advance width="494.24"/>
  <outline>
    <contour>
      <point x="31.279999999999998" y="467.8" type="line"/>
      <point x="31.279999999999998" y="397.4" type="line"/>
      <point x="462.855" y="397.4" type="line"/>
      <point x="462.855" y="467.8" type="line"/>
    </contour>
    <contour>
      <point x="31.279999999999998" y="329.6" type="line"/>
      <point x="31.279999999999998" y="259.2" type="line"/>
      <point x="462.855" y="259.2" type="line"/>
      <point x="462.855" y="329.6" type="line"/>
    </contour>
    <contour>
      <point x="226.075" y="634.0" type="curve" smooth="yes"/>
      <point x="254.62" y="634.0"/>
      <point x="271.94" y="607.2"/>
      <point x="271.94" y="567.2" type="curve" smooth="yes"/>
      <point x="271.94" y="509.4"/>
      <point x="229.735" y="474.8"/>
      <point x="174.315" y="452.4" type="curve"/>
      <point x="377.27" y="432.2" type="line"/>
      <point x="421.625" y="461.6"/>
      <point x="437.635" y="502.4"/>
      <point x="437.635" y="561.4" type="curve" smooth="yes"/>
      <point x="437.635" y="650.2"/>
      <point x="383.18" y="720.0"/>
      <point x="245.245" y="720.0" type="curve" smooth="yes"/>
      <point x="144.445" y="720.0"/>
      <point x="86.3" y="679.6"/>
      <point x="68.635" y="660.8" type="curve"/>
      <point x="68.635" y="547.0" type="line"/>
      <point x="178.405" y="547.0" type="line"/>
      <point x="178.405" y="645.2" type="line"/>
      <point x="150.815" y="648.2"/>
      <point x="150.125" y="600.4"/>
      <point x="163.66" y="586.8" type="curve"/>
      <point x="178.68" y="618.2"/>
      <point x="200.71499999999997" y="634.0"/>
    </contour>
    <contour>
      <point x="277.595" y="76.0" type="curve" smooth="yes"/>
      <point x="242.23000000000002" y="76.0"/>
      <point x="223.725" y="104.8"/>
      <point x="223.725" y="156.2" type="curve" smooth="yes"/>
      <point x="223.725" y="212.4"/>
      <point x="265.23" y="271.2"/>
      <point x="349.28499999999997" y="288.0" type="curve"/>
      <point x="122.25999999999999" y="294.2" type="line"/>
      <point x="82.595" y="274.4"/>
      <point x="55.225" y="229.8"/>
      <point x="55.225" y="167.6" type="curve" smooth="yes"/>
      <point x="55.225" y="57.8"/>
      <point x="119.535" y="-10.0"/>
      <point x="261.265" y="-10.0" type="curve" smooth="yes"/>
      <point x="345.115" y="-10.0"/>
      <point x="412.805" y="28.2"/>
      <point x="448.78999999999996" y="56.599999999999994" type="curve"/>
      <point x="448.78999999999996" y="190.0" type="line"/>
      <point x="331.235" y="190.0" type="line"/>
      <point x="331.235" y="78.2" type="line"/>
      <point x="361.86" y="75.2"/>
      <point x="366.495" y="131.8"/>
      <point x="357.755" y="134.4" type="curve"/>
      <point x="336.375" y="100.4"/>
      <point x="318.525" y="76.0"/>
    </contour>
  </outline>
</glyph>
